<?xml version="1.0" encoding="UTF-8" standalone="no"?>
<!DOCTYPE svg PUBLIC "-//W3C//DTD SVG 1.1//EN" "http://www.w3.org/Graphics/SVG/1.1/DTD/svg11.dtd">
<svg width="100%" height="100%" viewBox="0 0 90 76" version="1.1" xmlns="http://www.w3.org/2000/svg" xmlns:xlink="http://www.w3.org/1999/xlink" xml:space="preserve" xmlns:serif="http://www.serif.com/" style="fill-rule:evenodd;clip-rule:evenodd;stroke-linejoin:round;stroke-miterlimit:2;">
    <circle cx="51.8" cy="37.9" r="30.8" style="fill:rgb(254,221,77);"/>
    <g id="sunRays">
        <path d="M26.5,9.7L23.7,12.5C22.3,14 22.3,16.3 23.7,17.8L26.4,20.5C28.6,17.3 31.3,14.6 34.5,12.4L31.8,9.7C30.3,8.2 27.9,8.2 26.5,9.7ZM77.2,9.7C75.8,8.3 73.4,8.3 71.9,9.7L69.2,12.4C72.4,14.6 75.1,17.3 77.3,20.5L80,17.8C81.4,16.3 81.4,14 80,12.5L77.2,9.7ZM53.8,0L49.8,0C47.8,0 46.1,1.7 46.1,3.7L46.1,7.6C48,7.3 49.9,7.1 51.8,7.1C53.8,7.1 55.7,7.3 57.5,7.6L57.5,3.7C57.5,1.7 55.9,0 53.8,0ZM17.7,32.1C15.6,32.1 14,33.8 14,35.8L14,39.8C14,41.9 15.7,43.5 17.7,43.5L21.6,43.5C21.3,41.6 21.1,39.7 21.1,37.8C21.1,35.8 21.3,33.9 21.7,32.1L17.7,32.1ZM77.3,55.2C75.1,58.4 72.4,61.1 69.2,63.3L71.9,66C73.3,67.4 75.7,67.4 77.2,66L80,63.2C81.4,61.8 81.4,59.4 80,57.9L77.3,55.2ZM86,32.1L82.1,32.1C82.4,34 82.6,35.9 82.6,37.8C82.6,39.8 82.4,41.7 82.1,43.5L86,43.5C88.1,43.5 89.7,41.8 89.7,39.8L89.7,35.8C89.7,33.8 88,32.1 86,32.1ZM26.4,55.2L23.7,57.9C22.3,59.3 22.3,61.7 23.7,63.2L26.5,66C28,67.4 30.3,67.4 31.8,66L34.5,63.3C31.3,61.1 28.6,58.4 26.4,55.2ZM46.1,68.1L46.1,72C46.1,74.1 47.8,75.7 49.8,75.7L53.8,75.7C55.9,75.7 57.5,74 57.5,72L57.5,68.1C55.6,68.4 53.7,68.6 51.8,68.6C49.9,68.7 48,68.5 46.1,68.1Z" style="fill:rgb(254,221,77);fill-rule:nonzero;"/>
        <path d="M46.1,6L46.1,7.6C48,7.3 49.9,7.1 51.8,7.1C53.8,7.1 55.7,7.3 57.5,7.6L57.5,6C55.6,5.7 53.7,5.5 51.8,5.5C49.9,5.5 48,5.7 46.1,6ZM77.3,20.5L78.4,19.4C76.2,16.3 73.5,13.5 70.3,11.3L69.2,12.4C72.4,14.6 75.1,17.3 77.3,20.5ZM20,32.1C19.7,34 19.5,35.9 19.5,37.8C19.5,39.8 19.7,41.7 20,43.5L21.6,43.5C21.3,41.6 21.1,39.7 21.1,37.8C21.1,35.8 21.3,33.9 21.7,32.1L20,32.1ZM69.2,63.3L70.3,64.4C73.4,62.2 76.2,59.5 78.4,56.3L77.3,55.2C75.1,58.4 72.4,61.1 69.2,63.3ZM83.7,32.1L82.1,32.1C82.4,34 82.6,35.9 82.6,37.8C82.6,39.8 82.4,41.7 82.1,43.5L83.7,43.5C84,41.6 84.2,39.7 84.2,37.8C84.2,35.9 84,34 83.7,32.1ZM46.1,68.1L46.1,69.7C48,70 49.9,70.2 51.8,70.2C53.8,70.2 55.7,70 57.5,69.7L57.5,68.1C55.6,68.4 53.7,68.6 51.8,68.6C49.9,68.7 48,68.5 46.1,68.1ZM26.4,55.2L25.3,56.3C27.5,59.4 30.2,62.2 33.4,64.4L34.5,63.3C31.3,61.1 28.6,58.4 26.4,55.2ZM25.3,19.4L26.4,20.5C28.6,17.3 31.3,14.6 34.5,12.4L33.4,11.3C30.2,13.5 27.5,16.2 25.3,19.4Z" style="fill:rgb(250,163,27);fill-rule:nonzero;"/>
    </g>
    <path d="M73.8,16.3L30.3,59.9C28.9,58.5 27.6,56.9 26.4,55.3C24,51.9 22.4,47.9 21.6,43.6C21.3,41.7 21.1,39.8 21.1,37.9C21.1,35.9 21.3,34 21.6,32.2C22.4,27.9 24.1,24 26.4,20.5C28.6,17.3 31.3,14.6 34.5,12.4C37.9,10.1 41.9,8.4 46.2,7.6C48.1,7.3 50,7.1 51.9,7.1C53.9,7.1 55.8,7.3 57.6,7.6C61.9,8.4 65.8,10.1 69.3,12.4C70.9,13.6 72.4,14.9 73.8,16.3Z" style="fill:white;fill-opacity:0.2;fill-rule:nonzero;"/>
    <g>
        <path d="M48.1,20.7C37.9,20.7 29.3,27.3 26.4,36.5C20.7,37.8 16,41.8 13.9,47.1C6.1,47.4 0,53.7 0,61.5C0,69.3 6.2,75.6 13.9,75.9L48.5,75.9L48.5,20.7L48.1,20.7Z" style="fill:white;fill-rule:nonzero;"/>
        <path d="M69.9,40.8C68.5,29.6 59,20.9 47.5,20.7L47.5,75.9L69.3,75.9C78.7,75.5 86.1,67.8 86.1,58.3C86,49.1 78.9,41.5 69.9,40.8Z" style="fill:rgb(242,244,249);fill-rule:nonzero;"/>
    </g>
    <style>
#sunRays {
  transform-origin: 58% 50%;
  animation: spin 16s linear infinite;
}
@keyframes spin {
  0% {
    transform: rotate(0);
  }

  100% {
    transform: rotate(360deg);
  }
}
</style>
</svg>
