<svg xmlns="http://www.w3.org/2000/svg" viewBox="0 0 89.7 90"><style>.rainA{fill:#58c9e9}.rainB{fill:#1ec3f0}</style><path d="M50.2 0C39.6 0 30.6 6.9 27.5 16.5c-6 1.3-10.8 5.5-13 11.1C6.4 27.8 0 34.4 0 42.5c0 8.1 6.4 14.7 14.4 15h36V0h-.2z" fill="#FFF"/><path d="M72.8 20.9C71.4 9.2 61.5.2 49.5 0v57.5h22.7c9.8-.4 17.5-8.4 17.5-18.3 0-9.7-7.4-17.5-16.9-18.3z" fill="#F2F4F9"/><g class="raindrop3"><path d="M67.8 55.4L59 57.8l-.7.2c-.9.3-1.7.8-2.4 1.5-2.4 2.4-2.4 6.2 0 8.6l12.5-12.5c-.1-.3-.3-.3-.6-.2z" class="rainA"/><path d="M65.8 65.5l.2-.8 2.4-8.8c.1-.3 0-.5-.1-.6L55.8 67.8c2.4 2.4 6.2 2.4 8.6 0 .7-.7 1.1-1.5 1.4-2.3z" class="rainB"/></g><g class="raindrop2"><path d="M46.8 55.4L38 57.8l-.7.2c-.9.3-1.7.8-2.4 1.5-2.4 2.4-2.4 6.2 0 8.6l12.5-12.5c-.1-.3-.3-.3-.6-.2z" class="rainA"/><path d="M44.8 65.5l.2-.8 2.4-8.8c.1-.3 0-.5-.1-.6L34.8 67.8c2.4 2.4 6.2 2.4 8.6 0 .6-.7 1.1-1.5 1.4-2.3z" class="rainB"/></g><g class="raindrop1"><path d="M26.8 55.4L18 57.8l-.7.2c-.9.3-1.7.8-2.4 1.5-2.4 2.4-2.4 6.2 0 8.6l12.5-12.5c-.1-.3-.3-.3-.6-.2z" class="rainA"/><path d="M24.8 65.5l.2-.8 2.4-8.8c.1-.3 0-.5-.1-.6L14.8 67.8c2.4 2.4 6.2 2.4 8.6 0 .6-.7 1.1-1.5 1.4-2.3z" class="rainB"/></g></svg>