<svg xmlns="http://www.w3.org/2000/svg" viewBox="0 0 89.7 90"><style>.snow{fill:#fff}</style><path d="M50.2 0C39.6 0 30.6 6.9 27.5 16.5c-6 1.3-10.8 5.5-13 11.1C6.4 27.8 0 34.4 0 42.5c0 8.1 6.4 14.7 14.4 15h36V0h-.2z" fill="#FFF"/><path d="M72.8 20.9C71.4 9.2 61.5.2 49.5 0v57.5h22.7c9.8-.4 17.5-8.4 17.5-18.3 0-9.7-7.4-17.5-16.9-18.3z" fill="#F2F4F9"/><path d="M71.7 66.5l-1.8-1 1.5-.4c.1 0 .1-.1.1-.2l-.2-.9c0-.1-.1-.1-.2-.1l-2.8.7-2.2-1.3 2.3-1.3 2.8.7c.1 0 .2 0 .2-.1l.3-.9c0-.1 0-.2-.1-.2l-1.5-.4 1.8-1c.1 0 .1-.1.1-.2l-.5-.8c0-.1-.1-.1-.2-.1l-1.8 1 .4-1.5c0-.1 0-.2-.1-.2l-.9-.2c-.1 0-.2 0-.2.1L68 61l-2.3 1.3v-2.5l2-2c.1-.1.1-.2 0-.2l-.7-.7c-.1-.1-.2-.1-.2 0L65.7 58v-2.2c0-.1-.1-.2-.2-.2h-1c-.1 0-.2.1-.2.2V58l-1.1-1.1c-.1-.1-.2-.1-.2 0l-.7.7c-.1.1-.1.2 0 .2l2 2v2.5l-2.2-1.2-.7-2.8c0-.1-.1-.1-.2-.1l-.9.2c-.1 0-.1.1-.1.2l.4 1.5-1.9-1.1c-.1 0-.2 0-.2.1l-.5.8c0 .1 0 .2.1.2l1.9 1.1-1.5.4c-.1 0-.1.1-.1.2l.3.9c0 .1.1.1.2.1l2.8-.7 2.2 1.2-2.2 1.2-2.8-.7c-.1 0-.2 0-.2.1l-.2.9c0 .1 0 .2.1.2l1.5.4-1.9 1.1c-.1 0-.1.1-.1.2l.5.8c0 .1.1.1.2.1l1.9-1.1-.4 1.5c0 .1 0 .2.1.2l.9.2c.1 0 .2 0 .2-.1l.7-2.8 2.2-1.2v2.6l-2 2c-.1.1-.1.2 0 .2l.7.7c.1.1.2.1.2 0l1.1-1.1v2.1c0 .1.1.2.2.2h1c.1 0 .2-.1.2-.2v-2.1l1.1 1.1c.1.1.2.1.2 0l.7-.7c.1-.1.1-.2 0-.2l-2-2v-2.6l2.3 1.3.7 2.8c0 .1.1.1.2.1l.9-.2c.1 0 .1-.1.1-.2l-.4-1.5 1.8 1c.1 0 .2 0 .2-.1l.5-.8c-.3-.1-.3-.2-.4-.2z" class="snow snowflake3"/><path d="M50.7 66.5l-1.8-1 1.5-.4c.1 0 .1-.1.1-.2l-.2-.9c0-.1-.1-.1-.2-.1l-2.8.7-2.3-1.3 2.3-1.3 2.8.7c.1 0 .2 0 .2-.1l.3-.9c0-.1 0-.2-.1-.2l-1.5-.4 1.8-1c.1 0 .1-.1.1-.2l-.5-.8c0-.1-.1-.1-.2-.1l-1.8 1 .4-1.5c0-.1 0-.2-.1-.2l-.9-.2c-.1 0-.2 0-.2.1l-.7 2.8-2.3 1.3v-2.5l2-2c.1-.1.1-.2 0-.2l-.7-.7c-.1-.1-.2-.1-.2 0L44.6 58v-2.2c0-.1-.1-.2-.2-.2h-1.1c-.1 0-.2.1-.2.2V58L42 56.9c-.1-.1-.2-.1-.2 0l-.7.7c-.1.1-.1.2 0 .2l2 2v2.5l-2.2-1.2-.7-2.8c0-.1-.1-.1-.2-.1l-.9.2c-.1 0-.1.1-.1.2l.4 1.5-1.9-1.1c-.1 0-.2 0-.2.1l-.5.8c0 .1 0 .2.1.2l1.9 1.1-1.5.4c-.1 0-.1.1-.1.2l.3.9c0 .1.1.1.2.1l2.8-.7 2.2 1.2-2.2 1.2-2.8-.7c-.1 0-.2 0-.2.1l-.2.9c0 .1 0 .2.1.2l1.5.4-1.9 1.1c-.1 0-.1.1-.1.2l.5.8c0 .1.1.1.2.1l1.9-1.1-.4 1.5c0 .1 0 .2.1.2l.9.2c.1 0 .2 0 .2-.1l.7-2.8 2.2-1.2v2.6l-2 2c-.1.1-.1.2 0 .2l.7.7c.1.1.2.1.2 0l1.1-1.1v2.1c0 .1.1.2.2.2h1c.1 0 .2-.1.2-.2v-2.1l1.1 1.1c.1.1.2.1.2 0l.7-.7c.1-.1.1-.2 0-.2l-2-2v-2.6l2.3 1.3.7 2.8c0 .1.1.1.2.1l.9-.2c.1 0 .1-.1.1-.2l-.4-1.5 1.8 1c.1 0 .2 0 .2-.1l.5-.8c-.1-.1-.1-.2-.2-.2z" class="snow snowflake2"/><path d="M29.7 66.5l-1.8-1 1.5-.4c.1 0 .1-.1.1-.2l-.2-.9c0-.1-.1-.1-.2-.1l-2.8.7-2.3-1.3 2.3-1.3 2.8.7c.1 0 .2 0 .2-.1l.3-.9c0-.1 0-.2-.1-.2l-1.5-.4 1.8-1c.1 0 .1-.1.1-.2l-.5-.8c0-.1-.1-.1-.2-.1l-1.8 1 .4-1.5c0-.1 0-.2-.1-.2l-.9-.2c-.1 0-.2 0-.2.1l-.7 2.8-2.3 1.3v-2.5l2-2c.1-.1.1-.2 0-.2l-.7-.7c-.1-.1-.2-.1-.2 0L23.6 58v-2.2c0-.1-.1-.2-.2-.2h-1c-.1 0-.2.1-.2.2V58l-1.1-1.1c-.1-.1-.2-.1-.2 0l-.7.7c-.1.1-.1.2 0 .2l2 2v2.5L20 61.1l-.7-2.8c0-.1-.1-.1-.2-.1l-.9.2c-.1 0-.1.1-.1.2l.4 1.5-1.9-1.1c-.1 0-.2 0-.2.1l-.5.8c0 .1 0 .2.1.2l1.9 1.1-1.5.4c-.1 0-.1.1-.1.2l.3.9c0 .1.1.1.2.1l2.8-.7 2.2 1.2-2.2 1.2-2.8-.7c-.1 0-.2 0-.2.1l-.2.9c0 .1 0 .2.1.2l1.5.4-1.9 1.1c-.1 0-.1.1-.1.2l.5.8c0 .1.1.1.2.1l1.9-1.1-.4 1.5c0 .1 0 .2.1.2l.9.2c.1 0 .2 0 .2-.1l.7-2.8 2.2-1.2v2.6l-2 2c-.1.1-.1.2 0 .2l.7.7c.1.1.2.1.2 0l1.1-1.1v2.1c0 .1.1.2.2.2h1c.1 0 .2-.1.2-.2v-2.1l1.1 1.1c.1.1.2.1.2 0l.7-.7c.1-.1.1-.2 0-.2l-2-2v-2.6l2.3 1.3.7 2.8c0 .1.1.1.2.1l.9-.2c.1 0 .1-.1.1-.2l-.4-1.5 1.8 1c.1 0 .2 0 .2-.1l.5-.8c-.2-.1-.2-.2-.3-.2z" class="snow snowflake1"/></svg>