<svg xmlns="http://www.w3.org/2000/svg" viewBox="0 0 85.7 85.7"><style>.sun{fill:#fed923}</style><circle cx="42.8" cy="42.8" r="34.9" class="sun"/><path id="sunRays" d="M14.1 11l-3.2 3.2c-1.6 1.6-1.6 4.3 0 6l3.1 3.1c2.5-3.6 5.6-6.7 9.1-9.1L20 11.1c-1.5-1.8-4.2-1.8-5.9-.1zm57.4 0c-1.6-1.6-4.3-1.6-6 0l-3.1 3.1c3.6 2.5 6.7 5.6 9.1 9.1l3.1-3.1c1.6-1.6 1.6-4.3 0-6L71.5 11zM45.1 0h-4.5c-2.3 0-4.2 1.9-4.2 4.2v4.4c2.1-.4 4.2-.6 6.5-.6 2.2 0 4.4.2 6.5.6V4.2c-.1-2.3-2-4.2-4.3-4.2zM4.2 36.4c-2.3 0-4.2 1.9-4.2 4.2v4.5c0 2.3 1.9 4.2 4.2 4.2h4.4C8.2 47.2 8 45 8 42.8s.2-4.4.6-6.5H4.2zm67.4 26.1c-2.4 3.6-5.6 6.7-9.1 9.1l3.1 3.1c1.6 1.6 4.3 1.6 6 0l3.2-3.2c1.6-1.6 1.6-4.3 0-6l-3.2-3zm9.9-26.1h-4.4c.4 2.1.6 4.3.6 6.5s-.2 4.4-.6 6.5h4.4c2.3 0 4.2-1.9 4.2-4.2v-4.5c0-2.4-1.9-4.3-4.2-4.3zM14 62.5l-3.1 3.1c-1.6 1.6-1.6 4.3 0 6l3.2 3.2c1.6 1.6 4.3 1.6 6 0l3.1-3.1c-3.6-2.5-6.7-5.6-9.2-9.2zm22.4 14.6v4.4c0 2.3 1.9 4.2 4.2 4.2h4.5c2.3 0 4.2-1.9 4.2-4.2v-4.4c-2.1.4-4.2.6-6.5.6-2.2 0-4.3-.2-6.4-.6z" class="sun"/><path id="sunAccent" d="M36.4 6.8v1.8c2.1-.4 4.2-.6 6.5-.6 2.2 0 4.4.2 6.5.6V6.8c-2.1-.4-4.3-.6-6.5-.6-2.3 0-4.4.2-6.5.6zm35.2 16.4l1.3-1.3c-2.5-3.6-5.6-6.7-9.1-9.1l-1.3 1.3c3.6 2.4 6.7 5.5 9.1 9.1zM6.8 36.4c-.4 2.1-.6 4.3-.6 6.5s.2 4.4.6 6.5h1.8c-.4-2.1-.6-4.3-.6-6.5s.2-4.4.6-6.5H6.8zm55.7 35.2l1.3 1.3c3.6-2.5 6.7-5.6 9.1-9.1l-1.3-1.3c-2.4 3.6-5.5 6.7-9.1 9.1zm16.4-35.2h-1.8c.4 2.1.6 4.3.6 6.5s-.2 4.4-.6 6.5h1.8c.4-2.1.6-4.3.6-6.5s-.2-4.4-.6-6.5zM36.4 77.1v1.8c2.1.4 4.3.6 6.5.6s4.4-.2 6.5-.6v-1.8c-2.1.4-4.2.6-6.5.6s-4.4-.2-6.5-.6zM14 62.5l-1.3 1.3c2.5 3.6 5.6 6.7 9.1 9.1l1.3-1.3c-3.5-2.4-6.6-5.5-9.1-9.1zm-1.2-40.6l1.3 1.3c2.5-3.6 5.6-6.7 9.1-9.1l-1.3-1.3c-3.6 2.4-6.7 5.5-9.1 9.1z" fill="#FAA31B"/><path d="M67.7 18.4L18.4 67.7c-1.6-1.6-3.1-3.4-4.4-5.2-2.7-3.9-4.5-8.4-5.4-13.2-.4-2.1-.6-4.2-.6-6.5 0-2.2.2-4.4.6-6.5.9-4.8 2.8-9.3 5.5-13.2 2.5-3.6 5.6-6.7 9.1-9.1 3.9-2.7 8.4-4.5 13.2-5.4 2.1-.4 4.3-.6 6.5-.6s4.4.2 6.5.6c4.8.9 9.3 2.8 13.2 5.5 1.8 1.2 3.5 2.7 5.1 4.3z" fill="#fff" opacity=".2"/>
<style>
#sunRays, #sunAccent {
  transform-origin: center;
  animation: spin 16s linear infinite;
}
@keyframes spin {
  0% {
    transform: rotate(0);
  }

  100% {
    transform: rotate(360deg);
  }
}
</style>
</svg>